grf
version=1
nRows=7
nColumns=37
inDegrees=no
endheader
time	ground_force_1_vx	ground_force_1_vy	ground_force_1_vz	ground_force_1_px	ground_force_1_py	ground_force_1_pz	ground_moment_1_mx	ground_moment_1_my	ground_moment_1_mz	ground_force_2_vx	ground_force_2_vy	ground_force_2_vz	ground_force_2_px	ground_force_2_py	ground_force_2_pz	ground_moment_2_mx	ground_moment_2_my	ground_moment_2_mz	ground_force_3_vx	ground_force_3_vy	ground_force_3_vz	ground_force_3_px	ground_force_3_py	ground_force_3_pz	ground_moment_3_mx	ground_moment_3_my	ground_moment_3_mz	ground_force_4_vx	ground_force_4_vy	ground_force_4_vz	ground_force_4_px	ground_force_4_py	ground_force_4_pz	ground_moment_4_mx	ground_moment_4_my	ground_moment_4_mz
      0.00000000	      0.00000000	     -0.00000000	      0.00000000	      0.00000000	      0.00000000	      0.00000000	      0.00000000	      0.00000000	      0.00000000	      2.34096599	     18.89564514	   -368.80923462	   -415.29413848	  -1083.90868845	      0.00000000	     -0.00000000	      0.00000000	   4149.24056588	      6.49702449	    -22.32296238	   -428.41448975	   -415.13934077	   -726.65376148	      0.00000000	      0.00000000	     -0.00000000	  -3686.45386421	      0.00000000	     -0.00000000	      0.00000000	      0.00000000	      0.00000000	      0.00000000	      0.00000000	      0.00000000	      0.00000000
      0.01000000	      0.00000000	     -0.00000000	      0.00000000	      0.00000000	      0.00000000	      0.00000000	      0.00000000	      0.00000000	      0.00000000	      2.94231415	     17.44707298	   -371.01394653	   -414.74619188	  -1084.49708872	      0.00000000	      0.00000000	      0.00000000	   4495.02952821	      6.11991934	    -21.41745049	   -430.15478516	   -414.45221199	   -726.76484458	      0.00000000	      0.00000000	     -0.00000000	  -3826.97061785	      0.00000000	     -0.00000000	      0.00000000	      0.00000000	      0.00000000	      0.00000000	      0.00000000	      0.00000000	      0.00000000
      0.02000000	      0.00000000	     -0.00000000	      0.00000000	      0.00000000	      0.00000000	      0.00000000	      0.00000000	      0.00000000	      0.00000000	      3.88090992	     16.62206268	   -370.13256836	   -415.94608403	  -1082.44700187	      0.00000000	     -0.00000000	      0.00000000	   4575.60000469	      5.81177533	    -20.40230993	   -431.46331787	   -413.39871412	   -726.71184641	      0.00000000	      0.00000000	     -0.00000000	  -3885.68356947	      0.00000000	     -0.00000000	      0.00000000	      0.00000000	      0.00000000	      0.00000000	      0.00000000	      0.00000000	      0.00000000
      0.03000000	      0.00000000	     -0.00000000	      0.00000000	      0.00000000	      0.00000000	      0.00000000	      0.00000000	      0.00000000	      0.00000000	      4.48288870	     16.55591202	   -372.25164795	   -413.64501192	  -1084.93500510	      0.00000000	      0.00000000	      0.00000000	   4482.74011738	      5.72156825	    -20.15901425	   -431.98840332	   -412.53248659	   -726.80378936	      0.00000000	      0.00000000	     -0.00000000	  -4135.06316901	      0.00000000	     -0.00000000	      0.00000000	      0.00000000	      0.00000000	      0.00000000	      0.00000000	      0.00000000	      0.00000000
      0.04000000	      0.00000000	     -0.00000000	      0.00000000	      0.00000000	      0.00000000	      0.00000000	      0.00000000	      0.00000000	      0.00000000	      4.59431267	     16.06574059	   -371.01541138	   -413.53269329	  -1083.76314367	      0.00000000	      0.00000000	      0.00000000	   4518.40137020	      5.83266902	    -19.09988073	   -433.20861816	   -412.06718751	   -727.33813261	      0.00000000	      0.00000000	     -0.00000000	  -4151.86439799	      0.00000000	     -0.00000000	      0.00000000	      0.00000000	      0.00000000	      0.00000000	      0.00000000	      0.00000000	      0.00000000
      0.05000000	      0.00000000	     -0.00000000	      0.00000000	      0.00000000	      0.00000000	      0.00000000	      0.00000000	      0.00000000	      0.00000000	      4.39386702	     15.50902271	   -370.04330444	   -413.14850763	  -1083.56039716	      0.00000000	     -0.00000000	      0.00000000	   4593.50019843	      6.16538798	    -17.86307580	   -433.55905151	   -411.83335212	   -727.26208813	      0.00000000	      0.00000000	     -0.00000000	  -4263.47078706	      0.00000000	     -0.00000000	      0.00000000	      0.00000000	      0.00000000	      0.00000000	      0.00000000	      0.00000000	      0.00000000
      0.06000000	      0.00000000	     -0.00000000	      0.00000000	      0.00000000	      0.00000000	      0.00000000	      0.00000000	      0.00000000	      0.00000000	      3.99231553	     14.70651627	   -371.01437378	   -412.43728169	  -1082.61318206	      0.00000000	      0.00000000	      0.00000000	   4695.35990465	      6.38744160	    -16.80313548	   -433.82034302	   -411.23487569	   -727.41638381	      0.00000000	      0.00000000	     -0.00000000	  -4271.22858957	      0.00000000	     -0.00000000	      0.00000000	      0.00000000	      0.00000000	      0.00000000	      0.00000000	      0.00000000	      0.00000000
